# xmcd
#
# Track frame offsets: 
#        150
#        12602
#        26478
#        41915
#        57541
#        70126
#        86776
#        97054
#        110572
#        122458
#
# Disc length: 1805 seconds
#
# Revision: 1
# Processed by: cddbd v1.5.2PL0 Copyright (c) Steve Scherf et al.
# Submitted via: ExactAudioCopy v0.99pb4
#
DISCID=8d070b0a
DTITLE=Barry White - Out Of The Shadows Of Love
DYEAR=2003
DGENRE=Soul
TTITLE0=Out Of The Shadows Of Love
TTITLE1=Under The Influence Of Love
TTITLE2=Come On In Love
TTITLE3=Your Heart And Soul
TTITLE4=All In The Run Of A Day
TTITLE5=Long Black Veil
TTITLE6=I Owe It All To You
TTITLE7=I've Got The World To Hold Me Up
TTITLE8=Where Can I Turn To
TTITLE9=Fragile, Handle With Care
EXTD=YEAR: 2001
EXTT0=
EXTT1=
EXTT2=
EXTT3=
EXTT4=
EXTT5=
EXTT6=
EXTT7=
EXTT8=
EXTT9=
PLAYORDER=
